# xmcd
#
# Track frame offsets:
# 150
# 16587
# 36820
# 54385
# 73490
# 90195
# 104396
# 123790
# 143421
# 163254
# 179370
# 196841
# 214145
# 231014
# 246392
#
# Disc length: 3506 seconds
#
#
# Revision: 0
# Processed by: cddbd v1.5.2PL0 Copyright (c) Steve Scherf et al.
# Submitted via: FreeRIP 2.944 
#
DISCID=c50db00f
DTITLE=Kim Richey - Glimmer
DYEAR=1999
DGENRE=Country
TTITLE0=Can't Lose Them All
TTITLE1=Other Side of Town
TTITLE2=Come Around
TTITLE3=Lay It Down
TTITLE4=Hello Old Friend
TTITLE5=The Way It Never Was
TTITLE6=Good At Secrets
TTITLE7=Keep Me
TTITLE8=If You Don't Mind
TTITLE9=So It Goes
TTITLE10=Long Way Back
TTITLE11=Didn't I
TTITLE12=I Will Be the Strength In You
TTITLE13=Gravity
TTITLE14=Good Day Here
EXTD=
EXTT0=
EXTT1=
EXTT2=
EXTT3=
EXTT4=
EXTT5=
EXTT6=
EXTT7=
EXTT8=
EXTT9=
EXTT10=
EXTT11=
EXTT12=
EXTT13=
EXTT14=
PLAYORDER=
